<svg version="1.1" xmlns="http://www.w3.org/2000/svg" xmlns:xlink="http://www.w3.org/1999/xlink" viewBox="0 0 252 252"><g fill="none" fill-rule="nonzero" stroke="none" stroke-width="1" stroke-linecap="butt" stroke-linejoin="miter" stroke-miterlimit="10" stroke-dasharray="" stroke-dashoffset="0" font-family="none" font-weight="none" font-size="none" text-anchor="none" style="mix-blend-mode: normal"><path d="M0,252v-252h252v252z" fill="none"></path><g><g id="surface1"><path d="M68.18335,19.44141h113.23389c6.52148,0 11.8125,5.29102 11.8125,11.8125v189c0,6.52148 -5.29102,11.8125 -11.8125,11.8125h-149.625c-6.53686,0 -11.8125,-5.29102 -11.8125,-11.8125v-152.60888c0,-3.1377 1.24585,-6.13696 3.46069,-8.35181l36.39112,-36.39112c2.21484,-2.21484 5.21411,-3.46069 8.3518,-3.46069z" fill="#ffeea3"></path><path d="M19.97974,232.3125l-0.58447,-37.25244l171.21973,-171.20435l2.61475,90.33179l-118.125,118.125z" fill="#ffeea3"></path><path d="M19.39526,154.14697l134.70557,-134.70557l22.64063,0.98438l-156.76172,156.76172z" fill="#ffeea3"></path><path d="M19.39526,130.52197l110.83447,-110.83447h11.8125l-122.64697,122.64697z" fill="#ffeea3"></path><path d="M155.82349,51.17212l4.87573,8.9209l8.9209,4.86035l-8.9209,4.87573l-4.87573,8.9209l-4.87573,-8.9209l-8.90552,-4.87573l8.90552,-4.86035z" fill="#ffffff"></path><path d="M96.43799,43.3125l3.36841,6.15234l6.15234,3.36841l-6.15234,3.36841l-3.36841,6.16772l-3.36841,-6.16772l-6.15234,-3.36841l6.15234,-3.36841z" fill="#ffffff"></path><path d="M42.22046,165.375l2.29175,4.19897l4.18359,2.29175l-4.18359,2.29175l-2.29175,4.19897l-2.29175,-4.19897l-4.19897,-2.29175l4.19897,-2.29175z" fill="#ffffff"></path><path d="M67.22974,19.6875v47.25h-47.25z" fill="#ffeea3"></path><path d="M228.375,90.5625h-165.375c-2.1687,0 -3.9375,1.7688 -3.9375,3.9375v78.75c0,2.1687 1.7688,3.9375 3.9375,3.9375h165.375c2.1687,0 3.9375,-1.7688 3.9375,-3.9375v-78.75c0,-2.1687 -1.7688,-3.9375 -3.9375,-3.9375z" fill="#ba9b48"></path><path d="M35.4375,204.75c-2.18408,0 -3.9375,1.75342 -3.9375,3.9375v7.875c0,2.18408 1.75342,3.9375 3.9375,3.9375c2.18408,0 3.9375,-1.75342 3.9375,-3.9375v-7.875c0,-2.18408 -1.75342,-3.9375 -3.9375,-3.9375z" fill="#ba9b48"></path><path d="M55.125,204.75c-2.18408,0 -3.9375,1.75342 -3.9375,3.9375v7.875c0,2.18408 1.75342,3.9375 3.9375,3.9375c2.18408,0 3.9375,-1.75342 3.9375,-3.9375v-7.875c0,-2.18408 -1.75342,-3.9375 -3.9375,-3.9375z" fill="#ba9b48"></path><path d="M74.8125,220.5c2.18408,0 3.9375,-1.75342 3.9375,-3.9375v-7.875c0,-2.18408 -1.75342,-3.9375 -3.9375,-3.9375c-2.18408,0 -3.9375,1.75342 -3.9375,3.9375v7.875c0,2.18408 1.75342,3.9375 3.9375,3.9375z" fill="#ba9b48"></path><path d="M94.5,220.5c2.18408,0 3.9375,-1.75342 3.9375,-3.9375v-7.875c0,-2.18408 -1.75342,-3.9375 -3.9375,-3.9375c-2.18408,0 -3.9375,1.75342 -3.9375,3.9375v7.875c0,2.18408 1.75342,3.9375 3.9375,3.9375z" fill="#ba9b48"></path><path d="M114.1875,220.5c2.18408,0 3.9375,-1.75342 3.9375,-3.9375v-7.875c0,-2.18408 -1.75342,-3.9375 -3.9375,-3.9375c-2.18408,0 -3.9375,1.75342 -3.9375,3.9375v7.875c0,2.18408 1.75342,3.9375 3.9375,3.9375z" fill="#ba9b48"></path><path d="M133.875,220.5c2.18408,0 3.9375,-1.75342 3.9375,-3.9375v-7.875c0,-2.18408 -1.75342,-3.9375 -3.9375,-3.9375c-2.18408,0 -3.9375,1.75342 -3.9375,3.9375v7.875c0,2.18408 1.75342,3.9375 3.9375,3.9375z" fill="#ba9b48"></path><path d="M153.5625,220.5c2.18408,0 3.9375,-1.75342 3.9375,-3.9375v-7.875c0,-2.18408 -1.75342,-3.9375 -3.9375,-3.9375c-2.18408,0 -3.9375,1.75342 -3.9375,3.9375v7.875c0,2.18408 1.75342,3.9375 3.9375,3.9375z" fill="#ba9b48"></path><path d="M173.25,220.5c2.18408,0 3.9375,-1.75342 3.9375,-3.9375v-7.875c0,-2.18408 -1.75342,-3.9375 -3.9375,-3.9375c-2.18408,0 -3.9375,1.75342 -3.9375,3.9375v7.875c0,2.18408 1.75342,3.9375 3.9375,3.9375z" fill="#ba9b48"></path><path d="M228.375,86.625h-31.5v-59.0625c0,-6.49072 -5.32178,-11.8125 -11.8125,-11.8125h-115.52564c-5.27563,0 -10.24365,2.04565 -13.93506,5.75244l-34.09936,34.09936c-3.70679,3.73755 -5.75244,8.65942 -5.75244,13.93506v154.90064c0,6.49072 5.32178,11.8125 11.8125,11.8125h157.5c6.49072,0 11.8125,-5.32178 11.8125,-11.8125v-43.3125h31.5c4.3374,0 7.875,-3.5376 7.875,-7.875v-78.75c0,-4.3374 -3.5376,-7.875 -7.875,-7.875zM61.18506,27.08569c0.56909,-0.56909 1.16895,-1.06128 1.81494,-1.49194v33.46875c0,2.1687 -1.7688,3.9375 -3.9375,3.9375h-33.45337c0.43066,-0.64599 0.92285,-1.26123 1.47656,-1.81494zM189,224.4375c0,2.1687 -1.7688,3.9375 -3.9375,3.9375h-157.5c-2.1687,0 -3.9375,-1.7688 -3.9375,-3.9375v-153.5625h35.4375c6.5061,0 11.8125,-5.3064 11.8125,-11.8125v-35.4375h114.1875c2.1687,0 3.9375,1.7688 3.9375,3.9375v59.0625h-126c-4.3374,0 -7.875,3.5376 -7.875,7.875v78.75c0,4.3374 3.5376,7.875 7.875,7.875h126zM228.375,173.25h-165.375v-78.75h165.375z" fill="#ba9b48"></path><path d="M141.75,110.25h-19.6875c-2.18408,0 -3.9375,1.75342 -3.9375,3.9375c0,2.18408 1.75342,3.9375 3.9375,3.9375h13.87354l-13.59668,33.97632c-0.7998,2.01489 0.18457,4.30664 2.19946,5.12183c0.47681,0.18457 0.969,0.27685 1.46118,0.27685c1.55347,0 3.04541,-0.93823 3.66065,-2.47632l15.75,-39.375c0.4768,-1.21509 0.33838,-2.58398 -0.3999,-3.67603c-0.73828,-1.07666 -1.95337,-1.72266 -3.26074,-1.72266z" fill="#ffffff"></path><path d="M173.25,149.625h-9.38232l8.96704,-17.93408c0.61523,-1.21509 0.53833,-2.66089 -0.16919,-3.82984c-0.7229,-1.15356 -1.98413,-1.86108 -3.35303,-1.86108h-15.75c-2.18408,0 -3.9375,1.75342 -3.9375,3.9375c0,2.18408 1.75342,3.9375 3.9375,3.9375h9.38233l-8.96704,17.93408c-0.61523,1.21508 -0.53833,2.66089 0.16919,3.82983c0.7229,1.15357 1.98413,1.86108 3.35303,1.86108h15.75c2.18408,0 3.9375,-1.75342 3.9375,-3.9375c0,-2.18408 -1.75342,-3.9375 -3.9375,-3.9375z" fill="#ffffff"></path></g></g></g></svg>