<svg xmlns="http://www.w3.org/2000/svg" xmlns:xlink="http://www.w3.org/1999/xlink" viewBox="0 0 48 48" version="1.1">
<g id="surface1">
<path style=" fill:#CFD8DC;" d="M 17 24 L 7 17.46875 C 7 17.46875 8 15.601563 8 13.734375 C 8 11.867188 7 10 7 10 L 17 16.53125 Z "></path>
<path style=" fill:#CFD8DC;" d="M 17 40 L 7 32.53125 C 7 32.53125 8 31.597656 8 29.734375 C 8 27.867188 7 26 7 26 L 17 32.53125 Z "></path>
<path style=" fill:#CFD8DC;" d="M 17 32 L 7 24.53125 C 7 24.53125 8 23.597656 8 21.734375 C 8 19.867188 7 18 7 18 L 17 24.53125 Z "></path>
<path style=" fill:#3F51B5;" d="M 17.625 34 C 17.40625 34 17.183594 33.929688 17 33.78125 L 6.375 25.78125 C 5.941406 25.433594 5.875 24.804688 6.21875 24.375 C 6.5625 23.945313 7.195313 23.875 7.625 24.21875 L 18.25 32.21875 C 18.679688 32.566406 18.75 33.195313 18.40625 33.625 C 18.207031 33.871094 17.917969 34 17.625 34 Z "></path>
<path style=" fill:#3F51B5;" d="M 42 25 L 16 25 C 16 25 17 26.742188 17 29.246094 C 17 31.75 16 33 16 33 L 42 33 C 42 33 43 32 43 29 C 43 26 42 25 42 25 Z "></path>
<path style=" fill:#9C27B0;" d="M 17.625 26 C 17.40625 26 17.183594 25.929688 17 25.78125 L 6.375 17.78125 C 5.941406 17.433594 5.875 16.804688 6.21875 16.375 C 6.5625 15.945313 7.195313 15.871094 7.625 16.21875 L 18.25 24.21875 C 18.679688 24.566406 18.75 25.195313 18.40625 25.625 C 18.207031 25.871094 17.917969 26 17.625 26 Z "></path>
<path style=" fill:#9C27B0;" d="M 42 17 L 16 17 C 16 17 17 18.742188 17 21.246094 C 17 23.75 16 25 16 25 L 42 25 C 42 25 43 24 43 21 C 43 18 42 17 42 17 Z "></path>
<path style=" fill:#8BC34A;" d="M 18.609375 41 C 18.609375 40.707031 18.496094 40.414063 18.25 40.21875 L 7.625 32.21875 C 7.195313 31.875 6.5625 31.945313 6.21875 32.375 C 5.875 32.808594 5.945313 33.4375 6.375 33.78125 L 15.960938 41 Z "></path>
<path style=" fill:#8BC34A;" d="M 42 33 L 16 33 C 16 33 17 34.742188 17 37.246094 C 17 39.75 16 41 16 41 L 42 41 C 42 41 43 40 43 37 C 43 34 42 33 42 33 Z "></path>
<path style=" fill:#689F38;" d="M 42 33 L 16 33 C 16 33 16.441406 33.757813 16.734375 35 L 42.769531 35 C 42.472656 33.558594 42 33 42 33 Z "></path>
<path style=" fill:#303F9F;" d="M 42 25 L 16 25 C 16 25 16.441406 25.757813 16.734375 27 L 42.769531 27 C 42.472656 25.558594 42 25 42 25 Z "></path>
<path style=" fill:#FDD835;" d="M 21.035156 32 C 21.144531 31.550781 21.332031 30.621094 21.332031 29.5 C 21.332031 28.378906 21.144531 27.449219 21.035156 27 L 19 27 C 19.003906 27.007813 19.332031 28.265625 19.332031 29.5 C 19.332031 30.734375 19.003906 31.992188 19 32 Z "></path>
<path style=" fill:#FDD835;" d="M 21.035156 24 C 21.144531 23.550781 21.332031 22.621094 21.332031 21.5 C 21.332031 20.378906 21.144531 19.449219 21.035156 19 L 19 19 C 19.003906 19.007813 19.332031 20.265625 19.332031 21.5 C 19.332031 22.734375 19.003906 23.992188 19 24 Z "></path>
<path style=" fill:#FDD835;" d="M 21.035156 40 C 21.144531 39.550781 21.332031 38.621094 21.332031 37.5 C 21.332031 36.378906 21.144531 35.449219 21.035156 35 L 19 35 C 19.003906 35.007813 19.332031 36.265625 19.332031 37.5 C 19.332031 38.734375 19.003906 39.992188 19 40 Z "></path>
<path style=" fill:#7B1FA2;" d="M 42.769531 19 C 42.472656 17.558594 42 17 42 17 L 30.84375 8.589844 C 30.84375 8.589844 30.0625 8 29 8 C 27.769531 8 7 8 7 8 L 7.019531 8.019531 C 6.703125 8.011719 6.390625 8.136719 6.191406 8.410156 C 5.867188 8.859375 5.964844 9.484375 6.410156 9.808594 L 16.148438 17.277344 C 16.308594 17.601563 16.566406 18.199219 16.753906 19 Z "></path>
<path style=" fill:#AF7000;" d="M 32 16 L 21 8 L 16 8 L 27 16 C 28.75 17.25 29 17.625 29 19 C 29 20.375 29 38 29 38 C 29 38 29 41 27 41 C 28.054688 41 30.679688 41 32 41 C 34 41 34 38 34 38 C 34 38 34 20 34 19 C 34 17 32.4375 16.4375 32 16 Z "></path>
<path style=" fill:#FFC107;" d="M 34 27 L 34 31 L 29 31 L 29 27 L 34 27 M 34.25 26 L 28.75 26 C 28.335938 26 28 26.335938 28 26.75 L 28 31.25 C 28 31.664063 28.335938 32 28.75 32 L 34.25 32 C 34.664063 32 35 31.664063 35 31.25 L 35 26.75 C 35 26.335938 34.664063 26 34.25 26 Z "></path>
<path style=" fill:#5B3B07;" d="M 32 29 C 32 29.277344 31.777344 29.5 31.5 29.5 C 31.222656 29.5 31 29.277344 31 29 C 31 28.722656 31.222656 28.5 31.5 28.5 C 31.777344 28.5 32 28.722656 32 29 Z "></path>
<path style=" fill:#FFEB3B;" d="M 31.5 29 C 31.222656 29 31 28.777344 31 28.5 L 31 25.5 C 31 25.222656 31.222656 25 31.5 25 C 31.777344 25 32 25.222656 32 25.5 L 32 28.5 C 32 28.777344 31.777344 29 31.5 29 Z "></path>
</g>
</svg>