<svg version="1.1" id="Layer_1" xmlns="http://www.w3.org/2000/svg" xmlns:xlink="http://www.w3.org/1999/xlink" x="0px" y="0px" viewBox="0 0 80 80" style="enable-background:new 0 0 80 80;" xml:space="preserve">
<g>
	<rect x="12.5" y="4.5" style="fill:#FFEEA3;" width="55" height="71"></rect>
	<g>
		<path style="fill:#BA9B48;" d="M67,5v70H13V5H67 M68,4H12v72h56V4L68,4z"></path>
	</g>
</g>
<g>
	<g>
		<path style="fill:#FFFAE0;" d="M40,64.5c-4.136,0-7.5-3.364-7.5-7.5c0-1.24,0.861-5.85,2.304-12.33
			c0.152-0.689,0.755-1.17,1.463-1.17h7.467c0.708,0,1.311,0.481,1.463,1.17C46.639,51.15,47.5,55.76,47.5,57
			C47.5,61.136,44.136,64.5,40,64.5z M40,54.5c-1.379,0-2.5,1.122-2.5,2.5s1.121,2.5,2.5,2.5s2.5-1.122,2.5-2.5S41.379,54.5,40,54.5
			z"></path>
	</g>
	<g>
		<path style="fill:#BA9B48;" d="M43.733,44c0.472,0,0.873,0.32,0.975,0.779C46.143,51.229,47,55.797,47,57c0,3.86-3.14,7-7,7
			s-7-3.14-7-7c0-1.203,0.857-5.771,2.291-12.221C35.393,44.32,35.794,44,36.267,44H43.733 M40,60c1.654,0,3-1.346,3-3s-1.346-3-3-3
			s-3,1.346-3,3S38.346,60,40,60 M43.733,43h-7.467c-0.937,0-1.748,0.647-1.952,1.562C33.591,47.818,32,55.177,32,57
			c0,4.418,3.582,8,8,8s8-3.582,8-8c0-1.823-1.591-9.182-2.315-12.438C45.481,43.647,44.671,43,43.733,43L43.733,43z M40,59
			c-1.105,0-2-0.895-2-2c0-1.105,0.895-2,2-2s2,0.895,2,2C42,58.105,41.105,59,40,59L40,59z"></path>
	</g>
</g>
<g>
	<polygon style="fill:#BA9B48;" points="44,37 40,37 38,35 44,35 	"></polygon>
</g>
<g>
	<circle style="fill:#BA9B48;" cx="44" cy="36" r="1"></circle>
</g>
<g>
	<polygon style="fill:#BA9B48;" points="36,39 40,39 42,37 36,37 	"></polygon>
</g>
<g>
	<circle style="fill:#BA9B48;" cx="36" cy="38" r="1"></circle>
</g>
<g>
	<polygon style="fill:#BA9B48;" points="44,33 40,33 38,31 44,31 	"></polygon>
</g>
<g>
	<circle style="fill:#BA9B48;" cx="44" cy="32" r="1"></circle>
</g>
<g>
	<polygon style="fill:#BA9B48;" points="36,35 40,35 42,33 36,33 	"></polygon>
</g>
<g>
	<circle style="fill:#BA9B48;" cx="36" cy="34" r="1"></circle>
</g>
<g>
	<polygon style="fill:#BA9B48;" points="44,29 40,29 38,27 44,27 	"></polygon>
</g>
<g>
	<circle style="fill:#BA9B48;" cx="44" cy="28" r="1"></circle>
</g>
<g>
	<polygon style="fill:#BA9B48;" points="36,31 40,31 42,29 36,29 	"></polygon>
</g>
<g>
	<circle style="fill:#BA9B48;" cx="36" cy="30" r="1"></circle>
</g>
<g>
	<polygon style="fill:#BA9B48;" points="44,25 40,25 38,23 44,23 	"></polygon>
</g>
<g>
	<circle style="fill:#BA9B48;" cx="44" cy="24" r="1"></circle>
</g>
<g>
	<polygon style="fill:#BA9B48;" points="36,27 40,27 42,25 36,25 	"></polygon>
</g>
<g>
	<circle style="fill:#BA9B48;" cx="36" cy="26" r="1"></circle>
</g>
<g>
	<polygon style="fill:#BA9B48;" points="44,21 40,21 38,19 44,19 	"></polygon>
</g>
<g>
	<circle style="fill:#BA9B48;" cx="44" cy="20" r="1"></circle>
</g>
<g>
	<polygon style="fill:#BA9B48;" points="36,23 40,23 42,21 36,21 	"></polygon>
</g>
<g>
	<circle style="fill:#BA9B48;" cx="36" cy="22" r="1"></circle>
</g>
<g>
	<polygon style="fill:#BA9B48;" points="44,17 40,17 38,15 44,15 	"></polygon>
</g>
<g>
	<circle style="fill:#BA9B48;" cx="44" cy="16" r="1"></circle>
</g>
<g>
	<polygon style="fill:#BA9B48;" points="36,19 40,19 42,17 36,17 	"></polygon>
</g>
<g>
	<circle style="fill:#BA9B48;" cx="36" cy="18" r="1"></circle>
</g>
<g>
	<polygon style="fill:#BA9B48;" points="44,13 40,13 38,11 44,11 	"></polygon>
</g>
<g>
	<circle style="fill:#BA9B48;" cx="44" cy="12" r="1"></circle>
</g>
<g>
	<polygon style="fill:#BA9B48;" points="36,15 40,15 42,13 36,13 	"></polygon>
</g>
<g>
	<circle style="fill:#BA9B48;" cx="36" cy="14" r="1"></circle>
</g>
<g>
	<polygon style="fill:#BA9B48;" points="44,9 40,9 38,7 44,7 	"></polygon>
</g>
<g>
	<circle style="fill:#BA9B48;" cx="44" cy="8" r="1"></circle>
</g>
<g>
	<polygon style="fill:#BA9B48;" points="36,11 40,11 42,9 36,9 	"></polygon>
</g>
<g>
	<circle style="fill:#BA9B48;" cx="36" cy="10" r="1"></circle>
</g>
<g>
	<polygon style="fill:#BA9B48;" points="36,7 40,7 42,5 36,5 	"></polygon>
</g>
<g>
	<circle style="fill:#BA9B48;" cx="36" cy="6" r="1"></circle>
</g>
<g>
	<path style="fill:#FFFAE0;" d="M36.5,43.5c-1.103,0-2-0.897-2-2s0.897-2,2-2h7c1.103,0,2,0.897,2,2s-0.897,2-2,2H36.5z"></path>
	<path style="fill:#BA9B48;" d="M43.5,40c0.827,0,1.5,0.673,1.5,1.5S44.327,43,43.5,43h-7c-0.827,0-1.5-0.673-1.5-1.5
		s0.673-1.5,1.5-1.5H43.5 M43.5,39h-7c-1.381,0-2.5,1.119-2.5,2.5s1.119,2.5,2.5,2.5h7c1.381,0,2.5-1.119,2.5-2.5S44.881,39,43.5,39
		L43.5,39z"></path>
</g>
</svg>